<?xml version="1.0" encoding="utf-8"?>
<!-- Generator: Adobe Illustrator 22.1.0, SVG Export Plug-In . SVG Version: 6.00 Build 0)  -->
<svg version="1.1" id="Layer_1" xmlns="http://www.w3.org/2000/svg" xmlns:xlink="http://www.w3.org/1999/xlink" x="0px" y="0px"
	 viewBox="0 0 102.5 102.5" style="enable-background:new 0 0 102.5 102.5;" xml:space="preserve">
<style type="text/css">
	.st0{fill:url(#SVGID_1_);}
	.st1{fill:url(#SVGID_2_);}
	.st2{fill:url(#SVGID_3_);}
</style>
<g>
	<g>
		<linearGradient id="SVGID_1_" gradientUnits="userSpaceOnUse" x1="-14.647" y1="27.6825" x2="656.5567" y2="27.6825">
			<stop  offset="1.502404e-03" style="stop-color:#DA8CFF"/>
			<stop  offset="1" style="stop-color:#9A55FF"/>
		</linearGradient>
		<path class="st0" d="M100.2,24L53.1,0.4c-1.2-0.6-2.5-0.6-3.7,0L2.3,24C0.9,24.7,0,26.1,0,27.7s0.9,3,2.3,3.7l47.1,23.5
			c0.6,0.3,1.2,0.4,1.9,0.4c0.6,0,1.3-0.1,1.9-0.4l47.1-23.5c1.4-0.7,2.3-2.1,2.3-3.7C102.5,26.1,101.6,24.7,100.2,24z M51.2,46.6
			L13.4,27.7L51.2,8.8l37.8,18.9L51.2,46.6z"/>
	</g>
</g>
<g>
	<g>
		<linearGradient id="SVGID_2_" gradientUnits="userSpaceOnUse" x1="-14.647" y1="86.5418" x2="656.5567" y2="86.5418">
			<stop  offset="1.502404e-03" style="stop-color:#DA8CFF"/>
			<stop  offset="1" style="stop-color:#9A55FF"/>
		</linearGradient>
		<path class="st1" d="M102,72.9c-1-2-3.5-2.9-5.6-1.9L51.2,93.7L6,71.1c-2-1-4.5-0.2-5.6,1.9c-1,2-0.2,4.5,1.9,5.6L49.4,102
			c0.6,0.3,1.2,0.4,1.9,0.4c0.6,0,1.3-0.1,1.9-0.4l47.1-23.5C102.2,77.4,103,75,102,72.9z"/>
	</g>
</g>
<g>
	<g>
		<linearGradient id="SVGID_3_" gradientUnits="userSpaceOnUse" x1="-14.647" y1="62.9979" x2="656.5567" y2="62.9979">
			<stop  offset="1.502404e-03" style="stop-color:#DA8CFF"/>
			<stop  offset="1" style="stop-color:#9A55FF"/>
		</linearGradient>
		<path class="st2" d="M102,49.4c-1-2-3.5-2.9-5.6-1.9L51.2,70.1L6,47.5c-2-1-4.5-0.2-5.6,1.9c-1,2-0.2,4.5,1.9,5.6l47.1,23.5
			c0.6,0.3,1.2,0.4,1.9,0.4c0.6,0,1.3-0.1,1.9-0.4l47.1-23.5C102.2,53.9,103,51.4,102,49.4z"/>
	</g>
</g>
</svg>
